<?xml version="1.0" encoding="UTF-8"?>
<svg id="a" data-name="Layer 2" xmlns="http://www.w3.org/2000/svg" xmlns:xlink="http://www.w3.org/1999/xlink" viewBox="0 0 228.24 249.6">
  <defs>
    <style>
      .d {
        filter: url(#b);
      }

      .e {
        fill: #fff;
      }

      .f {
        fill: #fbc825;
      }
    </style>
    <filter id="b" data-name="drop-shadow-1" x="0" y="0" width="228.24" height="249.6" filterUnits="userSpaceOnUse">
      <feOffset dx="0" dy="0"/>
      <feGaussianBlur result="c" stdDeviation="12"/>
      <feFlood flood-color="#111" flood-opacity="1"/>
      <feComposite in2="c" operator="in"/>
      <feComposite in="SourceGraphic"/>
    </filter>
  </defs>
  <g class="d">
    <path class="e" d="M68.9706,151.7345c1.8721-2.3042,2.3047-6.6245,2.3047-9.5049v-31.1787c0-2.8804-.4326-7.2007-2.3047-9.5049h13.1768c-1.8721,2.3042-2.3037,6.6245-2.3037,9.5049v31.1787c0,2.8615.4293,7.1399,2.2704,9.455l.7894-117.551h-48.7604v3.1157s12.9819,10.2664,13.5015,30.5178v97.623c-.5195,20.2515-13.5015,46.7344-13.5015,46.7344v3.1157h47.5442l.4265-63.5059h-13.1431ZM68.3241,151.7345h-13.1768c1.8721-2.3042,2.3047-6.6245,2.3047-9.5049v-31.1787c0-2.8804-.4326-7.2007-2.3047-9.5049h13.1768c-1.8721,2.3042-2.3037,6.6245-2.3037,9.5049v31.1787c0,2.8804.4316,7.2007,2.3037,9.5049Z"/>
    <path class="f" d="M85.2082,142.2297v-31.1787c0-2.8804-.4326-7.2007-2.3047-9.5049h13.1768c-1.8721,2.3042-2.3037,6.6245-2.3037,9.5049v31.1787c0,2.8804.4316,7.2007,2.3037,9.5049h-13.1768c1.8721-2.3042,2.3047-6.6245,2.3047-9.5049Z"/>
    <path class="f" d="M99.0314,142.2297v-31.1787c0-2.8804-.4326-7.2007-2.3047-9.5049h13.1768c-1.8721,2.3042-2.3037,6.6245-2.3037,9.5049v31.1787c0,2.8804.4316,7.2007,2.3037,9.5049h-13.1768c1.8721-2.3042,2.3047-6.6245,2.3047-9.5049Z"/>
    <path class="f" d="M112.8556,142.2297v-31.1787c0-2.8804-.4326-7.2007-2.3047-9.5049h13.1768c-1.8721,2.3042-2.3037,6.6245-2.3037,9.5049v31.1787c0,2.8804.4316,7.2007,2.3037,9.5049h-13.1768c1.8721-2.3042,2.3047-6.6245,2.3047-9.5049Z"/>
    <path class="f" d="M126.6789,142.2297v-31.1787c0-2.8804-.4326-7.2007-2.3047-9.5049h13.1768c-1.8721,2.3042-2.3037,6.6245-2.3037,9.5049v31.1787c0,2.8804.4316,7.2007,2.3037,9.5049h-13.1768c1.8721-2.3042,2.3047-6.6245,2.3047-9.5049Z"/>
    <path class="e" d="M182.0487,215.2404h-47.2534c27.3453-3.166,48.6133-33.7097,55.9967-45.6187h3.1152l-11.8585,45.6187Z"/>
    <path class="e" d="M134.7953,34.1338h47.2534v2.9963l9.9225,39.2178h-3.1152c-3.742-13.4843-21.8209-36.915-54.0607-42.2141Z"/>
  </g>
</svg>